<svg viewBox="0 0 24 24" preserveAspectRatio="xMidYMid meet" class="style-scope iron-icon" style="pointer-events: none; display: block; width: 100%; height: 100%;" xmlns="http://www.w3.org/2000/svg">

    <g class="style-scope iron-icon" fill="#ef6c00">
        <path d="M12,0 C5.37245455,0 0,5.37245455 0,12 C0,12.7718182 0.0728181818,13.527 0.212181818,14.2584545 L1.5,21 L3.00163636,21 L3.44972727,23.3904545 C3.51572727,23.7376364 3.82063636,24 4.18663636,24 L7.5,24 C8.32827273,24 9,23.3282727 9,22.4997273 C9,22.4059091 8.99127273,22.3142727 8.97490909,22.2250909 L7.56790909,14.7220909 C7.551,14.6329091 7.52563636,14.5442727 7.49181818,14.4567273 C7.19154545,13.6846364 6.32236364,13.302 5.55027273,13.6022727 L2.46218182,14.8028182 C2.12154545,14.9353636 1.93281818,15.2890909 1.99609091,15.6357273 L1.68572727,13.9778182 C1.56245455,13.3306364 1.5,12.6654545 1.5,12 C1.5,6.21027273 6.21027273,1.5 12,1.5 C17.7897273,1.5 22.5,6.21027273 22.5,12 C22.5,12.6654545 22.4375455,13.3306364 22.3145455,13.977 L22.0039091,15.6349091 C22.0669091,15.2885455 21.8779091,14.9353636 21.5378182,14.8028182 L18.4497273,13.6022727 C17.6776364,13.302 16.8081818,13.6846364 16.5081818,14.4567273 C16.4740909,14.5442727 16.449,14.6329091 16.4320909,14.7220909 L15.0250909,22.2250909 C15.0087273,22.3142727 15,22.4059091 15,22.4997273 C15,23.3282727 15.6714545,24 16.5,24 L19.8133636,24 C20.1793636,24 20.4842727,23.7376364 20.55,23.3904545 L20.9983636,21 L22.5,21 L23.7878182,14.2584545 C23.9271818,13.527 24,12.7718182 24,12 C24,5.37245455 18.6275455,0 12,0 L12,0 Z M22.0036364,15.6379091 L22.0036364,15.6370909 L22.0036364,15.6379091 L22.0036364,15.6379091 Z" class="style-scope iron-icon"></path>
        <path d="M0.75,11.692 C0.75,5.61706667 5.78672727,0.692 12,0.692 C18.213,0.692 23.25,5.61706667 23.25,11.692 L20.7177273,11.692 C20.3230909,11.692 20.0001818,11.3938667 19.9704545,11.0157333 C19.6186364,7.01786667 16.1781818,3.86986667 12,3.86986667 C7.82181818,3.86986667 4.38136364,7.01786667 4.02954545,11.0157333 C3.99981818,11.3938667 3.67663636,11.692 3.282,11.692 L0.75,11.692" class="style-scope iron-icon"></path>
    </g>
</svg>
